<svg width="200" height="200" viewBox="0 0 200 200" fill="none" xmlns="http://www.w3.org/2000/svg">
<path d="M188.889 85.955V172.222C188.889 187.563 176.452 200 161.111 200H127.778C124.709 200 122.222 197.512 122.222 194.444V127.778C122.222 124.709 119.735 122.222 116.667 122.222H83.3334C80.2651 122.222 77.7778 124.709 77.7778 127.778V194.444C77.7778 197.512 75.2905 200 72.2223 200H38.889C23.5478 200 11.1113 187.563 11.1113 172.222V85.955L9.08741 87.6217C6.71894 89.5722 3.21771 89.2334 1.26721 86.8649C-0.683295 84.4964 -0.344468 80.9952 2.024 79.0447L96.4683 1.26705C98.5197 -0.422351 101.48 -0.422351 103.532 1.26705L197.976 79.0447C200.344 80.9952 200.683 84.4964 198.733 86.8649C196.782 89.2334 193.281 89.5722 190.913 87.6217L188.889 85.955ZM177.852 76.866L100 12.7525L22.1479 76.866C22.1969 77.1626 22.2223 77.4672 22.2223 77.7777V172.222C22.2223 181.427 29.6843 188.889 38.889 188.889H66.6667V127.778C66.6667 118.573 74.1286 111.111 83.3334 111.111H116.667C125.871 111.111 133.333 118.573 133.333 127.778V188.889H161.111C170.316 188.889 177.778 181.427 177.778 172.222V77.7777C177.778 77.4672 177.803 77.1626 177.852 76.866Z" fill="#585252"/>
</svg>
