<svg width="120" height="141" viewBox="0 0 120 141" fill="none" xmlns="http://www.w3.org/2000/svg">
<rect x="0.5" y="11.5" width="119" height="119" rx="19.5" fill="white" stroke="black"/>
<mask id="path-2-outside-1_207_95" maskUnits="userSpaceOnUse" x="43" y="41" width="35" height="53" fill="black">
<rect fill="white" x="43" y="41" width="35" height="53"/>
<path d="M51.0107 84.9932C51.193 85.0843 51.6146 85.278 52.2754 85.5742C52.9362 85.8477 53.8363 86.1097 54.9756 86.3604C56.1149 86.611 57.3568 86.7363 58.7012 86.7363C61.5039 86.7363 63.9876 86.0755 66.1523 84.7539C68.3398 83.4323 69.4336 81.598 69.4336 79.251C69.4336 77.7471 68.9665 76.4938 68.0322 75.4912C67.098 74.4658 65.9359 73.6341 64.5459 72.9961C63.1787 72.3581 61.2874 71.5947 58.8721 70.7061C55.7048 69.5895 53.1413 68.5413 51.1816 67.5615C49.2448 66.5817 47.5814 65.1689 46.1914 63.3232C44.8242 61.4775 44.1406 59.1077 44.1406 56.2139C44.1406 51.5882 45.7129 48.1133 48.8574 45.7891C52.0247 43.4648 55.9896 42.3027 60.752 42.3027C62.7116 42.3027 64.7852 42.5192 66.9727 42.9521C69.1602 43.3623 71.0286 43.7952 72.5781 44.251C74.1276 44.6839 75.1074 44.9688 75.5176 45.1055L75.1758 57H70.6299L68.2373 49.5146C68.055 49.4691 67.6107 49.3438 66.9043 49.1387C66.1979 48.9108 65.2865 48.7057 64.1699 48.5234C63.0534 48.3411 61.9368 48.25 60.8203 48.25C57.8353 48.25 55.5339 48.9222 53.916 50.2666C52.2982 51.5882 51.4893 53.1833 51.4893 55.0518C51.4893 56.5557 51.9564 57.8203 52.8906 58.8457C53.8249 59.8483 54.987 60.68 56.377 61.3408C57.7897 62.0016 59.7607 62.7764 62.29 63.665C65.3206 64.736 67.8044 65.75 69.7412 66.707C71.6781 67.6641 73.3187 69.0199 74.6631 70.7744C76.0303 72.5062 76.7139 74.7051 76.7139 77.3711C76.7139 80.7207 75.8936 83.5576 74.2529 85.8818C72.6123 88.1833 70.402 89.8923 67.6221 91.0088C64.8649 92.1253 61.8001 92.6836 58.4277 92.6836C56.2402 92.6836 54.0869 92.4785 51.9678 92.0684C49.8486 91.6582 48.0827 91.2367 46.6699 90.8037C45.2799 90.348 44.3913 90.0518 44.0039 89.915V77.6445H49.6094L51.0107 84.9932Z"/>
</mask>
<path d="M51.0107 84.9932C51.193 85.0843 51.6146 85.278 52.2754 85.5742C52.9362 85.8477 53.8363 86.1097 54.9756 86.3604C56.1149 86.611 57.3568 86.7363 58.7012 86.7363C61.5039 86.7363 63.9876 86.0755 66.1523 84.7539C68.3398 83.4323 69.4336 81.598 69.4336 79.251C69.4336 77.7471 68.9665 76.4938 68.0322 75.4912C67.098 74.4658 65.9359 73.6341 64.5459 72.9961C63.1787 72.3581 61.2874 71.5947 58.8721 70.7061C55.7048 69.5895 53.1413 68.5413 51.1816 67.5615C49.2448 66.5817 47.5814 65.1689 46.1914 63.3232C44.8242 61.4775 44.1406 59.1077 44.1406 56.2139C44.1406 51.5882 45.7129 48.1133 48.8574 45.7891C52.0247 43.4648 55.9896 42.3027 60.752 42.3027C62.7116 42.3027 64.7852 42.5192 66.9727 42.9521C69.1602 43.3623 71.0286 43.7952 72.5781 44.251C74.1276 44.6839 75.1074 44.9688 75.5176 45.1055L75.1758 57H70.6299L68.2373 49.5146C68.055 49.4691 67.6107 49.3438 66.9043 49.1387C66.1979 48.9108 65.2865 48.7057 64.1699 48.5234C63.0534 48.3411 61.9368 48.25 60.8203 48.25C57.8353 48.25 55.5339 48.9222 53.916 50.2666C52.2982 51.5882 51.4893 53.1833 51.4893 55.0518C51.4893 56.5557 51.9564 57.8203 52.8906 58.8457C53.8249 59.8483 54.987 60.68 56.377 61.3408C57.7897 62.0016 59.7607 62.7764 62.29 63.665C65.3206 64.736 67.8044 65.75 69.7412 66.707C71.6781 67.6641 73.3187 69.0199 74.6631 70.7744C76.0303 72.5062 76.7139 74.7051 76.7139 77.3711C76.7139 80.7207 75.8936 83.5576 74.2529 85.8818C72.6123 88.1833 70.402 89.8923 67.6221 91.0088C64.8649 92.1253 61.8001 92.6836 58.4277 92.6836C56.2402 92.6836 54.0869 92.4785 51.9678 92.0684C49.8486 91.6582 48.0827 91.2367 46.6699 90.8037C45.2799 90.348 44.3913 90.0518 44.0039 89.915V77.6445H49.6094L51.0107 84.9932Z" fill="#ADD8E6"/>
<path d="M51.0107 84.9932L50.5196 85.0868L50.5659 85.3298L50.7871 85.4404L51.0107 84.9932ZM52.2754 85.5742L52.0709 86.0305L52.0775 86.0334L52.0842 86.0362L52.2754 85.5742ZM66.1523 84.7539L65.8938 84.3259L65.8918 84.3272L66.1523 84.7539ZM68.0322 75.4912L67.6626 75.828L67.6664 75.8321L68.0322 75.4912ZM64.5459 72.9961L64.3345 73.4492L64.3373 73.4505L64.5459 72.9961ZM58.8721 70.7061L59.0447 70.2368L59.0383 70.2345L58.8721 70.7061ZM51.1816 67.5615L50.9559 68.0077L50.958 68.0087L51.1816 67.5615ZM46.1914 63.3232L45.7896 63.6209L45.792 63.624L46.1914 63.3232ZM48.8574 45.7891L48.5616 45.3859L48.5602 45.387L48.8574 45.7891ZM66.9727 42.9521L66.8756 43.4427L66.8805 43.4436L66.9727 42.9521ZM72.5781 44.251L72.437 44.7307L72.4436 44.7325L72.5781 44.251ZM75.5176 45.1055L76.0174 45.1198L76.028 44.7486L75.6757 44.6311L75.5176 45.1055ZM75.1758 57V57.5H75.6616L75.6756 57.0144L75.1758 57ZM70.6299 57L70.1536 57.1522L70.2648 57.5H70.6299V57ZM68.2373 49.5146L68.7136 49.3624L68.6288 49.0971L68.3586 49.0296L68.2373 49.5146ZM66.9043 49.1387L66.7508 49.6145L66.7578 49.6168L66.7649 49.6188L66.9043 49.1387ZM53.916 50.2666L54.2323 50.6538L54.2356 50.6512L53.916 50.2666ZM52.8906 58.8457L52.521 59.1825L52.5248 59.1866L52.8906 58.8457ZM56.377 61.3408L56.1623 61.7924L56.1651 61.7937L56.377 61.3408ZM62.29 63.665L62.4566 63.1936L62.4558 63.1933L62.29 63.665ZM74.6631 70.7744L74.2662 71.0786L74.2706 71.0842L74.6631 70.7744ZM74.2529 85.8818L74.6601 86.1721L74.6614 86.1702L74.2529 85.8818ZM67.6221 91.0088L67.4357 90.5448L67.4344 90.5453L67.6221 91.0088ZM46.6699 90.8037L46.5141 91.2789L46.5234 91.2818L46.6699 90.8037ZM44.0039 89.915H43.5039V90.2688L43.8375 90.3865L44.0039 89.915ZM44.0039 77.6445V77.1445H43.5039V77.6445H44.0039ZM49.6094 77.6445L50.1005 77.5509L50.023 77.1445H49.6094V77.6445ZM50.7871 85.4404C50.9808 85.5372 51.4129 85.7355 52.0709 86.0305L52.4799 85.118C51.8163 84.8205 51.4053 84.6314 51.2343 84.546L50.7871 85.4404ZM52.0842 86.0362C52.7836 86.3256 53.7157 86.5951 54.8682 86.8487L55.083 85.872C53.9569 85.6243 53.0888 85.3697 52.4666 85.1122L52.0842 86.0362ZM54.8682 86.8487C56.0476 87.1082 57.326 87.2363 58.7012 87.2363V86.2363C57.3876 86.2363 56.1822 86.1138 55.083 85.872L54.8682 86.8487ZM58.7012 87.2363C61.5859 87.2363 64.1616 86.5551 66.4129 85.1807L65.8918 84.3272C63.8136 85.5959 61.4219 86.2363 58.7012 86.2363V87.2363ZM66.4109 85.1819C68.7322 83.7794 69.9336 81.7911 69.9336 79.251H68.9336C68.9336 81.4049 67.9475 83.0852 65.8938 84.3259L66.4109 85.1819ZM69.9336 79.251C69.9336 77.634 69.4272 76.2549 68.398 75.1503L67.6664 75.8321C68.5057 76.7328 68.9336 77.8602 68.9336 79.251H69.9336ZM68.4018 75.1545C67.4179 74.0746 66.1992 73.2048 64.7545 72.5417L64.3373 73.4505C65.6725 74.0634 66.778 74.8571 67.6626 75.828L68.4018 75.1545ZM64.7573 72.543C63.3717 71.8964 61.4655 71.1275 59.0447 70.2368L58.6994 71.1753C61.1094 72.062 62.9857 72.8198 64.3345 73.4492L64.7573 72.543ZM59.0383 70.2345C55.8815 69.1217 53.3393 68.0813 51.4052 67.1143L50.958 68.0087C52.9433 69.0014 55.5281 70.0574 58.7058 71.1776L59.0383 70.2345ZM51.4073 67.1154C49.5431 66.1723 47.9378 64.8111 46.5908 63.0225L45.792 63.624C47.225 65.5268 48.9465 66.9911 50.9559 68.0077L51.4073 67.1154ZM46.5932 63.0256C45.3047 61.2862 44.6406 59.0287 44.6406 56.2139H43.6406C43.6406 59.1868 44.3437 61.6689 45.7896 63.6209L46.5932 63.0256ZM44.6406 56.2139C44.6406 51.714 46.1619 48.4031 49.1546 46.1912L48.5602 45.387C45.2638 47.8234 43.6406 51.4625 43.6406 56.2139H44.6406ZM49.1532 46.1922C52.2179 43.9433 56.0729 42.8027 60.752 42.8027V41.8027C55.9063 41.8027 51.8316 42.9864 48.5616 45.386L49.1532 46.1922ZM60.752 42.8027C62.6749 42.8027 64.7158 43.0152 66.8756 43.4426L67.0697 42.4617C64.8545 42.0232 62.7483 41.8027 60.752 41.8027V42.8027ZM66.8805 43.4436C69.0572 43.8517 70.9084 44.2811 72.437 44.7307L72.7192 43.7713C71.1489 43.3094 69.2631 42.8729 67.0648 42.4607L66.8805 43.4436ZM72.4436 44.7325C73.9969 45.1665 74.9635 45.4478 75.3595 45.5798L75.6757 44.6311C75.2513 44.4897 74.2583 44.2013 72.7127 43.7694L72.4436 44.7325ZM75.0178 45.0911L74.676 56.9856L75.6756 57.0144L76.0174 45.1198L75.0178 45.0911ZM75.1758 56.5H70.6299V57.5H75.1758V56.5ZM71.1061 56.8478L68.7136 49.3624L67.761 49.6669L70.1536 57.1522L71.1061 56.8478ZM68.3586 49.0296C68.1874 48.9868 67.7533 48.8645 67.0437 48.6585L66.7649 49.6188C67.468 49.823 67.9226 49.9514 68.116 49.9997L68.3586 49.0296ZM67.0578 48.6628C66.3187 48.4244 65.3804 48.2144 64.2505 48.03L64.0894 49.0169C65.1926 49.197 66.0772 49.3972 66.7508 49.6145L67.0578 48.6628ZM64.2505 48.03C63.1077 47.8434 61.9642 47.75 60.8203 47.75V48.75C61.9095 48.75 62.9991 48.8389 64.0894 49.0169L64.2505 48.03ZM60.8203 47.75C57.7667 47.75 55.3352 48.4372 53.5965 49.882L54.2356 50.6512C55.7325 49.4072 57.9039 48.75 60.8203 48.75V47.75ZM53.5997 49.8794C51.8811 51.2833 50.9893 53.0142 50.9893 55.0518H51.9893C51.9893 53.3523 52.7152 51.8932 54.2323 50.6538L53.5997 49.8794ZM50.9893 55.0518C50.9893 56.6688 51.4955 58.0569 52.521 59.1824L53.2602 58.509C52.4173 57.5837 51.9893 56.4425 51.9893 55.0518H50.9893ZM52.5248 59.1866C53.507 60.2406 54.7224 61.1078 56.1623 61.7924L56.5916 60.8893C55.2516 60.2522 54.1428 59.456 53.2564 58.5048L52.5248 59.1866ZM56.1651 61.7937C57.5998 62.4648 59.5887 63.2459 62.1243 64.1368L62.4558 63.1933C59.9328 62.3068 57.9796 61.5385 56.5888 60.8879L56.1651 61.7937ZM62.1234 64.1365C65.1434 65.2037 67.607 66.2102 69.5197 67.1553L69.9627 66.2588C68.0017 65.2898 65.4979 64.2683 62.4566 63.1936L62.1234 64.1365ZM69.5197 67.1553C71.3862 68.0776 72.9673 69.3834 74.2662 71.0785L75.06 70.4703C73.6701 68.6563 71.9699 67.2506 69.9627 66.2588L69.5197 67.1553ZM74.2706 71.0842C75.5545 72.7105 76.2139 74.7933 76.2139 77.3711H77.2139C77.2139 74.6168 76.506 72.3019 75.0555 70.4646L74.2706 71.0842ZM76.2139 77.3711C76.2139 80.6363 75.4155 83.3678 73.8444 85.5935L74.6614 86.1702C76.3716 83.7474 77.2139 80.8051 77.2139 77.3711H76.2139ZM73.8458 85.5916C72.264 87.8105 70.1326 89.4617 67.4357 90.5448L67.8084 91.4728C70.6715 90.3228 72.9606 88.5561 74.6601 86.1721L73.8458 85.5916ZM67.4344 90.5453C64.7443 91.6347 61.7444 92.1836 58.4277 92.1836V93.1836C61.8559 93.1836 64.9855 92.6159 67.8097 91.4722L67.4344 90.5453ZM58.4277 92.1836C56.2717 92.1836 54.1502 91.9815 52.0628 91.5775L51.8728 92.5592C54.0236 92.9755 56.2088 93.1836 58.4277 93.1836V92.1836ZM52.0628 91.5775C49.9539 91.1693 48.2065 90.7516 46.8164 90.3257L46.5234 91.2818C47.9589 91.7217 49.7434 92.1471 51.8728 92.5592L52.0628 91.5775ZM46.8257 90.3286C45.4342 89.8724 44.5513 89.578 44.1703 89.4435L43.8375 90.3865C44.2312 90.5255 45.1257 90.8236 46.5141 91.2788L46.8257 90.3286ZM44.5039 89.915V77.6445H43.5039V89.915H44.5039ZM44.0039 78.1445H49.6094V77.1445H44.0039V78.1445ZM49.1182 77.7382L50.5196 85.0868L51.5019 84.8995L50.1005 77.5509L49.1182 77.7382Z" fill="black" mask="url(#path-2-outside-1_207_95)"/>
</svg>
