<svg width="257" height="245" viewBox="0 0 257 245" fill="none" xmlns="http://www.w3.org/2000/svg">
<path d="M100.899 189.535H155.934V226.225H100.899V189.535Z" stroke="#585252" stroke-width="18.3452" stroke-miterlimit="10"/>
<path d="M201.797 88.6363C201.797 45.5251 164.189 10.6693 120.161 16.1728C87.1397 19.8419 60.5391 46.4424 55.9528 79.4637C52.2838 106.064 63.2909 129.913 81.6361 145.506C94.4777 156.514 101.816 172.107 101.816 187.7V189.535H156.851V187.7C156.851 171.19 165.107 155.596 177.948 143.672C191.707 129.913 201.797 110.651 201.797 88.6363Z" stroke="#585252" stroke-width="18.3452" stroke-miterlimit="10"/>
<path d="M229.315 97.8088H256.833" stroke="#585252" stroke-width="18.3452" stroke-miterlimit="10"/>
<path d="M0 97.8088H27.5178" stroke="#585252" stroke-width="18.3452" stroke-miterlimit="10"/>
<path d="M199.963 169.354L219.225 188.617" stroke="#585252" stroke-width="18.3452" stroke-miterlimit="10"/>
<path d="M37.6077 7L56.8701 26.2624" stroke="#585252" stroke-width="18.3452" stroke-miterlimit="10"/>
<path d="M56.8701 169.354L37.6077 188.617" stroke="#585252" stroke-width="18.3452" stroke-miterlimit="10"/>
<path d="M219.225 7L199.963 26.2624" stroke="#585252" stroke-width="18.3452" stroke-miterlimit="10"/>
<path d="M146.761 226.225C146.761 236.315 138.506 244.57 128.416 244.57C118.326 244.57 110.071 236.315 110.071 226.225H146.761Z" fill="black"/>
</svg>
