<svg width="217" height="207" viewBox="0 0 217 207" fill="none" xmlns="http://www.w3.org/2000/svg">
<path d="M84.9421 160.668H131.274V191.556H84.9421V160.668Z" fill="white" stroke="#585252" stroke-width="18.3452" stroke-miterlimit="10"/>
<path d="M169.884 75.7262C169.884 39.4327 138.224 10.0891 101.158 14.7223C73.3591 17.8111 50.9653 40.2049 47.1043 68.0041C44.0155 90.398 53.2819 110.475 68.7259 123.603C79.5367 132.869 85.7143 145.996 85.7143 159.124V160.668H132.046V159.124C132.046 145.224 138.996 132.097 149.807 122.058C161.39 110.475 169.884 94.259 169.884 75.7262Z" fill="white" stroke="#585252" stroke-width="18.3452" stroke-miterlimit="10"/>
<path d="M193.05 83.448H216.216Z" fill="white"/>
<path d="M193.05 83.448H216.216" stroke="#585252" stroke-width="18.3452" stroke-miterlimit="10"/>
<path d="M0 83.448H23.166Z" fill="white"/>
<path d="M0 83.448H23.166" stroke="#585252" stroke-width="18.3452" stroke-miterlimit="10"/>
<path d="M168.34 143.679L184.556 159.895Z" fill="white"/>
<path d="M168.34 143.679L184.556 159.895" stroke="#585252" stroke-width="18.3452" stroke-miterlimit="10"/>
<path d="M31.6603 7L47.8765 23.2162Z" fill="white"/>
<path d="M31.6603 7L47.8765 23.2162" stroke="#585252" stroke-width="18.3452" stroke-miterlimit="10"/>
<path d="M47.8765 143.679L31.6603 159.895Z" fill="white"/>
<path d="M47.8765 143.679L31.6603 159.895" stroke="#585252" stroke-width="18.3452" stroke-miterlimit="10"/>
<path d="M184.556 7L168.34 23.2162Z" fill="white"/>
<path d="M184.556 7L168.34 23.2162" stroke="#585252" stroke-width="18.3452" stroke-miterlimit="10"/>
<path d="M123.552 191.556C123.552 200.05 116.602 207 108.108 207C99.6139 207 92.6641 200.05 92.6641 191.556H123.552Z" fill="white"/>
</svg>
